<svg width="163" height="34" viewBox="0 0 163 34" fill="none" xmlns="http://www.w3.org/2000/svg">
<path fill-rule="evenodd" clip-rule="evenodd" d="M8.82988 2.4473C2.67649 6.93382 -1.57029 16.52 0.553938 24.2929C1.40049 27.3903 3.16159 30.0781 6.0244 31.7889C13.7124 36.3831 24.0074 32.8196 26.3998 24.4825C28.6361 16.6893 24.3312 6.96883 18.326 2.60759C15.1857 0.326741 11.9658 0.160784 8.82988 2.4473ZM5.01087 17.6013V22.349H6.41965C7.06157 22.349 7.58356 22.1275 7.98923 21.6842C8.3931 21.2427 8.59606 20.6712 8.59606 19.9713C8.59606 19.2734 8.3931 18.7037 7.98923 18.2624C7.58356 17.8211 7.06157 17.6013 6.41965 17.6013H5.01087ZM3.11866 23.9588V15.9915H5.95524C6.76645 15.9915 7.39552 16.0556 7.8418 16.1859C8.28808 16.3143 8.69941 16.5261 9.07345 16.8235C9.55676 17.2067 9.92193 17.6655 10.1709 18.198C10.4199 18.7309 10.5434 19.3237 10.5434 19.9713C10.5434 20.6829 10.3923 21.3263 10.0899 21.9058C9.78735 22.485 9.34852 22.9674 8.77678 23.3542C8.45223 23.5719 8.09438 23.7255 7.70144 23.819C7.30875 23.9121 6.72596 23.9588 5.95524 23.9588H3.11866ZM11.3294 23.9588V15.9915H16.386V17.4613H13.2215V19.0829H16.2422V20.5643H13.2215V22.4657H16.4747V23.9588H11.3294ZM20.493 24.0287L17.0628 15.9915H19.0879L20.9561 20.6226L22.9495 15.9915H24.9968L21.312 24.0287H20.493Z" fill="#731C99"/>
<path d="M38.3574 26.0028V10.2236H42.0115V26.0028H38.3574ZM48.3818 16.0877V26.0028H44.8734V10.2236H47.9838L55.586 19.6303V10.2236H59.0949V26.0028H56.3163L48.3818 16.0877ZM74.289 24.6785C73.4376 25.2214 72.5658 25.6215 71.6732 25.8872C70.7803 26.1489 69.8424 26.2801 68.8634 26.2801C67.7562 26.2801 66.7352 26.0915 65.8079 25.7177C64.877 25.3407 64.0642 24.7863 63.3684 24.0584C62.6521 23.2996 62.1053 22.4102 61.7318 21.3977C61.3546 20.3811 61.1676 19.2915 61.1676 18.1249C61.1676 15.6721 61.9013 13.6969 63.3718 12.195C64.8425 10.6973 66.7837 9.94629 69.1953 9.94629C70.0609 9.94629 70.9047 10.0502 71.725 10.262C72.5489 10.4737 73.3616 10.7974 74.1645 11.2325V14.9368C73.3821 14.3705 72.5935 13.947 71.8046 13.6699C71.0123 13.3886 70.2229 13.2502 69.4307 13.2502C68.0017 13.2502 66.8737 13.6814 66.0535 14.5477C65.2337 15.4141 64.822 16.6038 64.822 18.1249C64.822 19.5997 65.2129 20.7779 65.9985 21.6555C66.7801 22.5373 67.8355 22.9762 69.161 22.9762C70.0119 22.9762 70.8666 22.8108 71.725 22.4758C72.5829 22.141 73.4376 21.6442 74.289 20.9896V24.6785ZM89.6974 10.2236V19.2568C89.6974 21.4669 89.1092 23.188 87.9293 24.424C86.7492 25.6603 85.1022 26.2801 82.9878 26.2801C80.8775 26.2801 79.2334 25.6603 78.0535 24.424C76.8739 23.188 76.2857 21.4669 76.2857 19.2568V10.2236H79.8566V19.099C79.8566 20.3544 80.1262 21.3131 80.6665 21.979C81.2057 22.6451 81.9915 22.9762 83.0158 22.9762C84.0367 22.9762 84.815 22.6451 85.3482 21.9828C85.8805 21.3246 86.147 20.3618 86.147 19.099V10.2236H89.6974ZM95.9673 23.1151H98.0229C98.9435 23.1151 99.5971 22.9724 99.9883 22.6878C100.379 22.3988 100.577 21.9254 100.577 21.2667C100.577 20.589 100.369 20.0883 99.9538 19.7649C99.5385 19.4415 98.888 19.2801 98.0022 19.2801H95.9673V23.1151ZM97.8015 16.4613C98.4416 16.4613 98.9189 16.3267 99.2341 16.0532C99.5491 15.7838 99.7046 15.3757 99.7046 14.8251C99.7046 14.2166 99.5455 13.762 99.2271 13.4658C98.9124 13.1692 98.4346 13.0189 97.8015 13.0189H95.9673V16.4613H97.8015ZM92.3965 26.0028V10.2236H97.6283C99.4936 10.2236 100.902 10.5623 101.85 11.2441C102.802 11.9254 103.276 12.9345 103.276 14.2742C103.276 14.9713 103.116 15.5836 102.795 16.1111C102.473 16.6385 102.002 17.0545 101.39 17.3623C102.379 17.7089 103.12 18.2211 103.604 18.9025C104.092 19.584 104.334 20.4429 104.334 21.4785C104.334 22.9919 103.867 24.1237 102.936 24.8745C102.006 25.6253 100.604 26.0028 98.7322 26.0028H92.3965ZM110.559 20.227H114.747L112.76 14.2205L110.559 20.227ZM104.622 26.0028L110.805 10.2236H114.899L120.421 26.0028H116.66L115.646 22.9302H109.535L108.4 26.0028H104.622ZM123.712 26.0028V13.1578H119.02V10.2236H132.141V13.1578H127.449V26.0028H123.712ZM136.626 18.1249C136.626 19.5303 137.006 20.6891 137.764 21.5938C138.525 22.4989 139.494 22.9531 140.671 22.9531C141.851 22.9531 142.823 22.4989 143.584 21.5938C144.342 20.6891 144.723 19.5303 144.723 18.1249C144.723 16.7116 144.342 15.5486 143.584 14.6401C142.823 13.7275 141.851 13.2731 140.671 13.2731C139.494 13.2731 138.525 13.7275 137.764 14.6401C137.006 15.5486 136.626 16.7116 136.626 18.1249ZM132.971 18.1249C132.971 16.9506 133.158 15.8682 133.529 14.8712C133.902 13.8739 134.456 12.9844 135.193 12.2028C135.909 11.452 136.723 10.8895 137.632 10.5239C138.543 10.1542 139.553 9.96944 140.671 9.96944C141.799 9.96944 142.819 10.1542 143.733 10.5278C144.647 10.9014 145.46 11.4597 146.176 12.2028C146.906 12.9844 147.46 13.8739 147.833 14.8712C148.211 15.8682 148.397 16.9506 148.397 18.1249C148.397 19.2915 148.211 20.3696 147.833 21.3668C147.46 22.3643 146.906 23.2459 146.176 24.0121C145.453 24.7629 144.633 25.3292 143.716 25.71C142.802 26.0915 141.785 26.2801 140.671 26.2801C139.56 26.2801 138.553 26.0915 137.643 25.7177C136.733 25.3407 135.916 24.7706 135.193 24.0121C134.463 23.2459 133.909 22.3643 133.536 21.3668C133.158 20.3696 132.971 19.2915 132.971 18.1249ZM155.813 16.6923C156.47 16.6923 156.958 16.5384 157.28 16.2343C157.602 15.9299 157.761 15.4681 157.761 14.8442C157.761 14.2511 157.595 13.7969 157.259 13.4849C156.923 13.173 156.442 13.0189 155.813 13.0189H154.107V16.6923H155.813ZM150.557 26.0028V10.2236H155.792C157.716 10.2236 159.138 10.5972 160.058 11.3403C160.975 12.0834 161.436 13.2386 161.436 14.8017C161.436 15.6721 161.232 16.4191 160.826 17.0389C160.422 17.6587 159.803 18.1825 158.965 18.6099C159.318 18.7524 159.633 18.9912 159.913 19.326C160.194 19.661 160.436 20.0845 160.646 20.5968L162.91 26.0028H158.906L157.1 21.4554C156.809 20.7313 156.477 20.235 156.107 19.9653C155.733 19.6918 155.207 19.557 154.522 19.557C154.47 19.557 154.398 19.5609 154.311 19.5686C154.221 19.5763 154.155 19.5802 154.107 19.5802V26.0028H150.557Z" fill="#731C99"/>
</svg>
