<svg width="40" height="41" viewBox="0 0 40 41" fill="none" xmlns="http://www.w3.org/2000/svg">
<path d="M38.4 0.8125H1.6C0.715 0.8125 0 1.5275 0 2.4125V39.2125C0 40.0975 0.715 40.8125 1.6 40.8125H38.4C39.285 40.8125 40 40.0975 40 39.2125V2.4125C40 1.5275 39.285 0.8125 38.4 0.8125ZM33.78 12.4875H30.585C28.08 12.4875 27.595 13.6775 27.595 15.4275V19.2825H33.575L32.795 25.3175H27.595V40.8125H21.36V25.3225H16.145V19.2825H21.36V14.8325C21.36 9.6675 24.515 6.8525 29.125 6.8525C31.335 6.8525 33.23 7.0175 33.785 7.0925V12.4875H33.78Z" fill="#731C99"/>
</svg>
