<svg width="40" height="40" viewBox="0 0 40 40" fill="none" xmlns="http://www.w3.org/2000/svg">
<path d="M20.0003 0.8125C8.95586 0.8125 0 9.76633 0 20.8124C0 29.6489 5.73062 37.1457 13.6772 39.7904C14.6766 39.9755 15.0441 39.3564 15.0441 38.8282C15.0441 38.3515 15.0253 36.7758 15.0169 35.1046C9.4525 36.3146 8.27844 32.7448 8.27844 32.7448C7.36898 30.4333 6.05781 29.8184 6.05781 29.8184C4.24328 28.5771 6.19492 28.6027 6.19492 28.6027C8.20273 28.7437 9.26039 30.6638 9.26039 30.6638C11.0445 33.7213 13.9391 32.8373 15.0809 32.3263C15.2601 31.0338 15.7782 30.1513 16.3506 29.6519C11.908 29.1463 7.23828 27.4312 7.23828 19.7678C7.23828 17.5843 8.01969 15.8001 9.29922 14.3995C9.09156 13.8956 8.40648 11.8616 9.49266 9.10656C9.49266 9.10656 11.1726 8.56938 14.9942 11.157C16.5894 10.7137 18.3003 10.4915 20.0002 10.4838C21.6995 10.4915 23.4118 10.7137 25.0102 11.157C28.828 8.5693 30.5046 9.10656 30.5046 9.10656C31.5934 11.8616 30.9089 13.8956 30.7013 14.3995C31.9834 15.8002 32.7597 17.5844 32.7597 19.7678C32.7597 27.4496 28.0809 29.1409 23.6273 29.6359C24.3446 30.2566 24.9837 31.4737 24.9837 33.3395C24.9837 36.0156 24.9604 38.1694 24.9604 38.8281C24.9604 39.3605 25.3206 39.9841 26.3343 39.7877C34.2766 37.1402 40 29.6461 40 20.8124C40 9.76633 31.0455 0.8125 20.0003 0.8125Z" fill="#731C99"/>
</svg>
