<svg width="40" height="36" viewBox="0 0 40 36" fill="none" xmlns="http://www.w3.org/2000/svg">
<path d="M19.9256 35.0685H39.9999V10.0546L18.3561 8.49316L19.9256 35.0685Z" fill="#03232E"/>
<path d="M0 10.0546V35.0685H20V8.49316L0 10.0546Z" fill="#07485E"/>
<path d="M19.9256 0L18.3561 4.93151L19.9256 9.86301H39.9999V0H19.9256Z" fill="#B4D2D7"/>
<path d="M0 0H20V9.86301H0V0Z" fill="#E1EBF0"/>
<path d="M3.56152 3.83594H6.02728V6.02772H3.56152V3.83594Z" fill="#FF4A4A"/>
<path d="M8.49316 3.83594H10.9589V6.02772H8.49316V3.83594Z" fill="#FFD422"/>
<path d="M13.6986 3.83594H16.1644V6.02772H13.6986V3.83594Z" fill="#00CC76"/>
<path d="M21.0961 18.9043H34.7947V21.0961H21.0961V18.9043Z" fill="#00CC76"/>
<path d="M4.93164 18.9043H18.6303V21.0961H4.93164V18.9043Z" fill="#00FF94"/>
<path d="M29.8629 13.6982H34.7944V16.164H29.8629V13.6982Z" fill="#00CC76"/>
<path d="M34.7944 23.8359H19.9197L18.3561 27.5347L19.9197 31.2332H34.7944V23.8359Z" fill="#EFE2DD"/>
<path d="M27.3973 13.6982H19.9564L19.1781 14.9109L19.9564 16.164H27.3973V13.6982Z" fill="#00CC76"/>
<path d="M4.93164 13.6982H9.86315V16.164H4.93164V13.6982Z" fill="#00FF94"/>
<path d="M12.3287 13.6982H20V16.164H12.3287V13.6982Z" fill="#00FF94"/>
<path d="M11.162 23.8359L9.58923 27.5347L11.162 31.2332H20.0002V23.8359H11.162Z" fill="#FFF5F5"/>
<path d="M4.93164 23.8359H10.959V31.2332H4.93164V23.8359Z" fill="#FFD422"/>
</svg>
