<svg width="40" height="41" viewBox="0 0 40 41" fill="none" xmlns="http://www.w3.org/2000/svg">
<path d="M36.25 0.8125H3.75C1.6875 0.8125 0 2.5 0 4.5625V37.0625C0 39.125 1.6875 40.8125 3.75 40.8125H36.25C38.3125 40.8125 40 39.125 40 37.0625V4.5625C40 2.5 38.3125 0.8125 36.25 0.8125ZM32.3984 28.8125L28.7422 28.8672C28.7422 28.8672 27.9531 29.0234 26.9219 28.3125C25.5547 27.375 24.2656 24.9297 23.2578 25.25C22.2422 25.5703 22.2734 27.7656 22.2734 27.7656C22.2734 27.7656 22.2812 28.2344 22.0469 28.4844C21.7969 28.7578 21.2969 28.8125 21.2969 28.8125H19.6641C19.6641 28.8125 16.0547 29.0312 12.875 25.7188C9.40625 22.1094 6.34375 14.9453 6.34375 14.9453C6.34375 14.9453 6.16406 14.4766 6.35938 14.25C6.57812 13.9922 7.16406 13.9766 7.16406 13.9766L11.0781 13.9531C11.0781 13.9531 11.4453 14.0156 11.7109 14.2109C11.9297 14.3672 12.0469 14.6719 12.0469 14.6719C12.0469 14.6719 12.6797 16.2734 13.5156 17.7188C15.1484 20.5391 15.9141 21.1562 16.4688 20.8594C17.2734 20.4219 17.0312 16.8672 17.0312 16.8672C17.0312 16.8672 17.0469 15.5781 16.625 15.0078C16.2969 14.5625 15.6797 14.4297 15.4141 14.3984C15.1953 14.3672 15.5547 13.8594 16.0234 13.625C16.7266 13.2812 17.9688 13.2578 19.4375 13.2734C20.5781 13.2812 20.9141 13.3594 21.3594 13.4609C22.7109 13.7891 22.25 15.0469 22.25 18.0625C22.25 19.0312 22.0781 20.3906 22.7734 20.8359C23.0703 21.0312 23.8047 20.8672 25.6406 17.75C26.5078 16.2734 27.1641 14.5391 27.1641 14.5391C27.1641 14.5391 27.3047 14.2266 27.5234 14.0938C27.75 13.9609 28.0547 14 28.0547 14L32.1719 13.9766C32.1719 13.9766 33.4062 13.8281 33.6094 14.3906C33.8203 14.9766 33.1484 16.3438 31.4688 18.5859C28.7109 22.2656 28.3984 21.9219 30.6953 24.0469C32.8828 26.0781 33.3359 27.0703 33.4141 27.1953C34.3047 28.6953 32.3984 28.8125 32.3984 28.8125Z" fill="#731C99"/>
</svg>
